# xmcd
#
# Track frame offsets:
# 150
# 18650
# 41641
# 59361
# 75512
# 91859
# 108123
# 126181
# 146299
# 167421
# 184896
# 197969
#
# Disc length: 2839 seconds
#
# Revision: 1
# Processed by: cddbd v1.5.2PL0 Copyright (c) Steve Scherf et al.
# Submitted via: TinyPlayer 2.8
#
DISCID=980b150c
DTITLE=Bryan Adams - 11
DYEAR=2008
DGENRE=Rock
TTITLE0=Tonight We Have the Stars
TTITLE1=I Thought I'd Seen Everything
TTITLE2=I Ain't Losing the Fight
TTITLE3=Oxygen
TTITLE4=We Found What We Were Looking For
TTITLE5=Broken Wings
TTITLE6=Something to Believe In
TTITLE7=Mysterious Ways
TTITLE8=She's Got a Way
TTITLE9=Flower Grown Wild
TTITLE10=Walk on By
TTITLE11=The Way of the World
EXTD=Location:  - UPC: 602517622371 - Catalogue number: 176 223-7 - Label: Polydor - ASIN: B0013F2LSK - Release Date: 2008 03 17 - Discogs: a10933,m318699,r1853062 - MUSICBRAINZ_ALBUMID: e1e97acf-9898-4e19-ae8c-6fc7b230b46d - AMG:  - 
EXTT0=
EXTT1=
EXTT2=
EXTT3=
EXTT4=
EXTT5=
EXTT6=
EXTT7=
EXTT8=
EXTT9=
EXTT10=
EXTT11=
PLAYORDER=
